Coordinates
version=1
nRows=13
nColumns=34
inDegrees=yes

Units are S.I. units (second, meters, Newtons, ...)
If the header above contains a line with 'inDegrees', this indicates whether rotational values are in degrees (yes) or radians (no).

endheader
time	pelvis_tilt	pelvis_list	pelvis_rotation	pelvis_tx	pelvis_ty	pelvis_tz	hip_flexion_r	hip_adduction_r	hip_rotation_r	knee_angle_r	ankle_angle_r	subtalar_angle_r	mtp_angle_r	hip_flexion_l	hip_adduction_l	hip_rotation_l	knee_angle_l	ankle_angle_l	subtalar_angle_l	mtp_angle_l	lumbar_extension	lumbar_bending	lumbar_rotation	arm_flex_r	arm_add_r	arm_rot_r	elbow_flex_r	pro_sup_r	arm_flex_l	arm_add_l	arm_rot_l	elbow_flex_l	pro_sup_l
      0.00000000	      0.32779554	      0.34304967	     -5.51761442	     -0.04816361	      1.15057165	     -0.03005633	     -2.43647782	      3.87603245	     -8.43091709	      4.64493534	      1.63892301	     -5.21038570	      0.00000000	     -5.46456350	      0.88632253	     -8.11720266	      1.84989720	      8.24907369	     -3.50295338	      0.00000000	     -0.23082467	      3.67825110	     -0.78321576	      7.63030135	    -11.15391418	     42.98827288	     11.98100796	     37.40870185	     -1.88749802	    -10.31049179	     33.17387105	     21.83925256	     34.11010951
      0.01666670	     -0.93682027	      1.17117803	     -5.55059577	     -0.04520756	      1.15220430	     -0.03073962	     -0.88799093	      3.28914162	     -8.68980597	      4.73098528	      4.50836212	     -4.01029427	      0.00000000	     -3.66385997	      1.94110671	    -10.55111190	      2.04927606	      9.54022600	      0.24820348	      0.00000000	      1.47392316	      2.98889707	     -2.02378846	      6.02584487	     -9.58557218	     14.57925081	     13.71633966	     79.44284533	     -4.79075577	     -7.16244930	      3.12764070	     23.31118196	     75.76279262
      0.03333330	     -1.26868827	      2.26265176	     -6.12274488	     -0.04269217	      1.15399033	     -0.02929430	     -0.95092846	      2.29575750	    -10.21443701	      3.99277506	      4.82531045	     -2.87365014	      0.00000000	     -3.22629533	      3.06365568	    -12.31235384	      2.12345223	      9.26884139	      0.12736679	      0.00000000	      2.48303101	      1.55097848	     -1.02535629	      5.40499333	     -8.97421220	     12.73450157	     11.95225356	     78.92838788	     -4.50281151	     -7.51113255	      2.81087726	     23.10695468	     75.60785018
      0.05000000	     -0.78824098	      2.65011769	     -6.22302810	     -0.04329902	      1.15603188	     -0.02875005	     -1.85994896	      1.91681245	    -11.05356018	      3.15951837	      4.81523171	     -2.30940833	      0.00000000	     -4.24609001	      3.73163690	    -12.99096627	      1.31998151	      9.18031621	      0.80301811	      0.00000000	      2.25633489	      0.97718568	     -1.03686820	      4.96213656	     -8.91344818	     11.28708381	     12.03481057	     78.35508400	     -4.53366974	     -7.76678461	      2.76163356	     22.92413326	     75.45282545
      0.06666670	     -0.75020619	      2.83543867	     -6.18124938	     -0.04085189	      1.15317069	     -0.02843208	     -2.08247738	      1.81350267	    -11.15854285	      2.82969546	      4.79788923	     -2.34571093	      0.00000000	     -4.37347434	      4.01686324	    -13.26894251	      1.24421227	      9.21485395	      0.68676150	      0.00000000	      2.39258903	      0.81663850	     -1.18603547	      4.61384637	     -9.08992896	     11.17997348	     11.93213840	     78.30721202	     -4.54279954	     -7.98685871	      2.73089823	     22.91653410	     75.43308204
      0.08333330	     -0.64155651	      2.97220292	     -6.15044333	     -0.04230442	      1.15552776	     -0.02858471	     -2.38969749	      1.74433037	    -11.16058084	      2.39383458	      4.73677179	     -2.32288552	      0.00000000	     -4.56588630	      4.23946897	    -13.29890030	      1.22220815	      9.20100488	      0.73933410	      0.00000000	      2.55159987	      0.61146802	     -1.21144733	      4.39107971	     -9.11429407	     11.01663156	     11.89971456	     78.22089688	     -4.38159071	     -8.10571775	      2.70027049	     23.00834486	     75.39549647
      0.10000000	     -0.06986724	      2.90552704	     -6.21459229	     -0.04178468	      1.15464550	     -0.02761346	     -3.17689557	      1.88743564	    -10.47711914	      1.82594408	      4.64000897	     -2.53311243	      0.00000000	     -5.22777414	      4.24239297	    -13.39701383	      1.14506604	      9.37188260	      1.46300667	      0.00000000	      1.63945490	      0.53574745	     -0.53220006	      3.25285485	     -8.87839879	      5.27123917	     13.66290959	     75.03800046	     -3.77362160	     -8.20866705	      2.85361597	     23.83253127	     74.04482053
      0.11666670	     -0.06079288	      2.90769005	     -6.25411861	     -0.04080887	      1.15518376	     -0.02696173	     -3.30240410	      1.86926082	    -10.55479980	      1.86947948	      4.54886105	     -2.55075583	      0.00000000	     -5.31816251	      4.23597404	    -13.42097223	      1.22441832	      9.33684597	      1.44946943	      0.00000000	      1.79205009	      0.51841119	     -0.59478976	      3.22756511	     -8.92162237	      5.26354364	     13.65250818	     75.03453120	     -3.60526502	     -8.24472610	      2.84806059	     23.89727882	     74.03653079
      0.13333330	     -0.02339543	      2.93266492	     -6.23373208	     -0.03814862	      1.15410752	     -0.02741567	     -3.39070908	      1.84926085	    -10.52705924	      1.82869691	      4.51576852	     -2.54071912	      0.00000000	     -5.43136760	      4.26166844	    -13.45204330	      1.28012249	      9.34529367	      1.41384226	      0.00000000	      1.91307127	      0.48902969	     -0.70620973	      3.11983746	     -8.93814055	      5.25705155	     13.61737140	     75.02981393	     -3.39529754	     -8.27689285	      2.84229550	     23.99248146	     74.02673115
      0.15000000	      0.29907031	      2.85765344	     -5.95784897	     -0.03843198	      1.15452273	     -0.02820202	     -4.11739325	      1.99571540	    -10.33796875	      1.30473260	      4.04979383	     -2.65558584	      0.00000000	     -5.98199241	      4.24407824	    -13.01064170	      1.07228238	      9.45380122	      1.39799763	      0.00000000	      1.57030918	      0.45497536	     -0.35213589	      2.75486510	     -9.02691616	      5.11595737	     13.61938458	     74.92621860	     -3.00305900	     -8.32386917	      2.94300710	     24.56314275	     73.86102861
      0.16666670	      0.30083941	      2.82392976	     -5.98488916	     -0.03962079	      1.15343497	     -0.02815185	     -4.13096113	      2.06265927	    -10.25795034	      1.30390220	      4.08585156	     -2.65197291	      0.00000000	     -6.04700098	      4.21640216	    -12.99158833	      1.08794573	      9.45359759	      1.40677207	      0.00000000	      1.64876595	      0.42967302	     -0.42862454	      2.78222017	     -9.04805412	      5.10600959	     13.64710326	     74.92012988	     -2.84318010	     -8.33707903	      2.94764200	     24.63973772	     73.85460487
      0.18333330	      0.28434753	      2.81107816	     -5.97714518	     -0.03846356	      1.15528345	     -0.02846168	     -4.10467844	      2.06241258	    -10.24569712	      1.28891220	      4.08914402	     -2.64967331	      0.00000000	     -6.08678020	      4.22042033	    -12.98768986	      1.10489663	      9.45333704	      1.40886990	      0.00000000	      1.65434234	      0.43190984	     -0.43364531	      2.78781564	     -9.04751860	      5.10552545	     13.65064016	     74.91969176	     -2.82588558	     -8.33925554	      2.94792026	     24.64834002	     73.85413777
      0.20000000	      0.34974732	      2.71305773	     -6.05294371	     -0.03538108	      1.15866500	     -0.02798594	     -4.60761792	      2.17710011	     -9.76144554	      0.81987428	      3.90719620	     -2.53649659	      0.00000000	     -6.25792861	      4.12303575	    -12.83882439	      1.02770934	      9.15635780	      1.58075810	      0.00000000	      1.82205789	      0.53552263	     -0.54575510	      2.67745835	     -9.07533107	      5.06663885	     13.71730545	     74.88025499	     -2.57970405	     -8.31586750	      3.04164959	     24.99795039	     73.82082715
